<svg xmlns="http://www.w3.org/2000/svg" width="520" height="302" viewBox="0 0 520 302"><rect width="520" height="302" rx="5" fill="#171b21"/><circle cx="20" cy="20" r="6" fill="#ff5f58"/><circle cx="40" cy="20" r="6" fill="#ffbd2e"/><circle cx="60" cy="20" r="6" fill="#18c132"/><svg x="15" y="50" width="480" height="242" viewBox="0 0 480 242" overflow="hidden"><style>.s0{fill:#1f6feb;font-weight:700}text{white-space:pre;font-kerning:none;font-variant-ligatures:none;font-synthesis:none;font-optical-sizing:none;-webkit-font-smoothing:antialiased;text-rendering:optimizeLegibility;text-decoration-skip-ink:none;text-decoration-thickness:1px;text-underline-offset:2px;letter-spacing:0.4px}</style><g font-family="&apos;JetBrains Mono&apos;,&apos;Fira Code&apos;,&apos;SF Mono&apos;,Menlo,Consolas,&apos;DejaVu Sans Mono&apos;,&apos;Liberation Mono&apos;,&apos;Symbols Nerd Font Mono&apos;,&apos;Symbols Nerd Font&apos;,&apos;Powerline Symbols&apos;,&apos;Apple Symbols&apos;,&apos;Segoe UI Symbol&apos;,&apos;Noto Sans Symbols 2&apos;,&apos;Noto Sans Symbols&apos;,&apos;Apple Color Emoji&apos;,&apos;Segoe UI Emoji&apos;,&apos;Noto Color Emoji&apos;,monospace" font-size="16" fill="#eceff4" shape-rendering="crispEdges"><defs><g id="c"><rect width="10" height="22" fill="#6a737d"/></g></defs><g class="r"><g transform="translate(0 0)"><g transform="translate(0 0)"><text y="16" class="s0">MERMAID / BLOCK</text></g><g transform="translate(0 44)"><text x="170" y="16">Block diagram</text></g><g transform="translate(0 132)"><path d="M24 10h6v1H24M24 10h1v12H24M30 10h100v1H30M130 10h5v1H130M134 10h1v12H134M184 10h6v1H184M184 10h1v12H184M190 10h100v1H190M290 10h5v1H290M294 10h1v12H294M344 10h6v1H344M344 10h1v12H344M350 10h100v1H350M450 10h5v1H450M454 10h1v12H454"/></g><g transform="translate(0 154)"><path d="M24 0h1v22H24M134 10h6v1H134M134 0h1v22H134M140 10h30v1H140M180 10h5v1H180M184 0h1v22H184M294 10h6v1H294M294 0h1v22H294M300 10h30v1H300M340 10h5v1H340M344 0h1v22H344M454 0h1v22H454"/><text x="50" y="16">模</text><text x="70" y="16">块</text><text x="90" y="16">A</text><text x="170" y="16">▶</text><text x="210" y="16">模</text><text x="230" y="16">块</text><text x="250" y="16">B</text><text x="330" y="16">▶</text><text x="370" y="16">模</text><text x="390" y="16">块</text><text x="410" y="16">C</text></g><g transform="translate(0 176)"><path d="M24 10h6v1H24M24 0h1v11H24M30 10h50v1H30M80 10h10v1H80M84 10h1v12H84M90 10h40v1H90M130 10h5v1H130M134 0h1v11H134M184 10h6v1H184M184 0h1v11H184M190 10h100v1H190M290 10h5v1H290M294 0h1v11H294M344 10h6v1H344M344 0h1v11H344M350 10h50v1H350M400 10h10v1H400M404 10h1v12H404M410 10h40v1H410M450 10h5v1H450M454 0h1v11H454"/></g><g transform="translate(0 198)"><path d="M90 10h310v1H90M400 10h5v1H400M404 0h1v11H404"/><text x="80" y="16">▲</text></g></g></g></g></svg></svg>