<svg xmlns="http://www.w3.org/2000/svg" width="430" height="588" viewBox="0 0 430 588"><rect width="430" height="588" rx="5" fill="#171b21"/><circle cx="20" cy="20" r="6" fill="#ff5f58"/><circle cx="40" cy="20" r="6" fill="#ffbd2e"/><circle cx="60" cy="20" r="6" fill="#18c132"/><svg x="15" y="50" width="390" height="528" viewBox="0 0 390 528" overflow="hidden"><style>.s0{fill:#1f6feb;font-weight:700}text{white-space:pre;font-kerning:none;font-variant-ligatures:none;font-synthesis:none;font-optical-sizing:none;-webkit-font-smoothing:antialiased;text-rendering:optimizeLegibility;text-decoration-skip-ink:none;text-decoration-thickness:1px;text-underline-offset:2px;letter-spacing:0.4px}</style><g font-family="&apos;JetBrains Mono&apos;,&apos;Fira Code&apos;,&apos;SF Mono&apos;,Menlo,Consolas,&apos;DejaVu Sans Mono&apos;,&apos;Liberation Mono&apos;,&apos;Symbols Nerd Font Mono&apos;,&apos;Symbols Nerd Font&apos;,&apos;Powerline Symbols&apos;,&apos;Apple Symbols&apos;,&apos;Segoe UI Symbol&apos;,&apos;Noto Sans Symbols 2&apos;,&apos;Noto Sans Symbols&apos;,&apos;Apple Color Emoji&apos;,&apos;Segoe UI Emoji&apos;,&apos;Noto Color Emoji&apos;,monospace" font-size="16" fill="#eceff4" shape-rendering="crispEdges"><defs><g id="c"><rect width="10" height="22" fill="#6a737d"/></g></defs><g class="r"><g transform="translate(0 0)"><g transform="translate(0 0)"><text y="16" class="s0">MERMAID / GITGRAPH</text></g><g transform="translate(0 44)"><text x="140" y="16">Git graph</text></g><g transform="translate(0 66)"><text x="60" y="16">direction=LR  current=main</text></g><g transform="translate(0 132)"><path d="M130 10h40v1H130M190 10h30v1H190M220 10h10v1H220M224 10h1v12H224M230 10h50v1H230M280 10h10v1H280M284 10h1v12H284M310 10h40v1H310"/><text y="16">* main      ●</text><text x="170" y="16">▶●</text><text x="290" y="16">▶◆</text><text x="350" y="16">▶●</text></g><g transform="translate(0 154)"><path d="M224 0h1v22H224M284 0h1v22H284"/><text x="120" y="16">1     2</text><text x="300" y="16">4     5</text></g><g transform="translate(0 176)"><path d="M224 0h1v22H224M284 0h1v22H284"/></g><g transform="translate(0 198)"><path d="M224 10h6v1H224M224 0h1v11H224M250 10h30v1H250M280 10h5v1H280M284 0h1v11H284"/><text x="20" y="16">开</text><text x="40" y="16">发</text><text x="60" y="16">分</text><text x="80" y="16">支</text><text x="230" y="16">▶●</text></g><g transform="translate(0 220)"><text x="240" y="16">3</text></g><g transform="translate(0 264)"><text x="10" y="16">[1]</text><text x="50" y="16">甲</text><text x="90" y="16">branch=main  type=normal</text></g><g transform="translate(0 286)"><text x="10" y="16">[2]</text><text x="50" y="16">乙</text><text x="80" y="16">branch=main type=normal</text></g><g transform="translate(0 308)"><text x="10" y="16">parents=</text><text x="90" y="16">甲</text></g><g transform="translate(0 330)"><text x="10" y="16">[3]</text><text x="50" y="16">丙</text><text x="80" y="16">branch=</text><text x="150" y="16">开</text><text x="170" y="16">发</text><text x="190" y="16">分</text><text x="210" y="16">支</text><text x="240" y="16">type=normal</text></g><g transform="translate(0 352)"><text x="10" y="16">parents=</text><text x="90" y="16">乙</text></g><g transform="translate(0 374)"><text x="10" y="16">[4]</text><text x="50" y="16">合</text><text x="70" y="16">并</text><text x="100" y="16">branch=main type=merge</text></g><g transform="translate(0 396)"><text x="10" y="16">parents=</text><text x="90" y="16">乙</text><text x="110" y="16">,</text><text x="120" y="16">丙</text><text x="150" y="16">message=merged branch</text></g><g transform="translate(0 418)"><text x="10" y="16">开</text><text x="30" y="16">发</text><text x="50" y="16">分</text><text x="70" y="16">支</text><text x="100" y="16">into main</text></g><g transform="translate(0 440)"><text x="10" y="16">customId=true</text></g><g transform="translate(0 462)"><text x="10" y="16">[5]</text><text x="50" y="16">丁</text><text x="80" y="16">branch=main type=normal</text></g><g transform="translate(0 484)"><text x="10" y="16">parents=</text><text x="90" y="16">合</text><text x="110" y="16">并</text></g></g></g></g></svg></svg>