<svg xmlns="http://www.w3.org/2000/svg" width="1010" height="1006" viewBox="0 0 1010 1006"><rect width="1010" height="1006" rx="5" fill="#171b21"/><circle cx="20" cy="20" r="6" fill="#ff5f58"/><circle cx="40" cy="20" r="6" fill="#ffbd2e"/><circle cx="60" cy="20" r="6" fill="#18c132"/><svg x="15" y="50" width="970" height="946" viewBox="0 0 970 946" overflow="hidden"><style>.s0{fill:#1f6feb;font-weight:700}text{white-space:pre;font-kerning:none;font-variant-ligatures:none;font-synthesis:none;font-optical-sizing:none;-webkit-font-smoothing:antialiased;text-rendering:optimizeLegibility;text-decoration-skip-ink:none;text-decoration-thickness:1px;text-underline-offset:2px;letter-spacing:0.4px}</style><g font-family="&apos;JetBrains Mono&apos;,&apos;Fira Code&apos;,&apos;SF Mono&apos;,Menlo,Consolas,&apos;DejaVu Sans Mono&apos;,&apos;Liberation Mono&apos;,&apos;Symbols Nerd Font Mono&apos;,&apos;Symbols Nerd Font&apos;,&apos;Powerline Symbols&apos;,&apos;Apple Symbols&apos;,&apos;Segoe UI Symbol&apos;,&apos;Noto Sans Symbols 2&apos;,&apos;Noto Sans Symbols&apos;,&apos;Apple Color Emoji&apos;,&apos;Segoe UI Emoji&apos;,&apos;Noto Color Emoji&apos;,monospace" font-size="16" fill="#eceff4" shape-rendering="crispEdges"><defs><g id="c"><rect width="10" height="22" fill="#6a737d"/></g><g id="l0"><path d="M54 10h6v1H54M54 10h1v12H54M60 10h880v1H60M940 10h5v1H940M944 10h1v12H944"/></g><g id="l1"><path d="M54 10h6v1H54M54 0h1v11H54M60 10h880v1H60M940 10h5v1H940M944 0h1v11H944"/></g></defs><g class="r"><g transform="translate(0 0)"><g transform="translate(0 0)"><text y="16" class="s0">MERMAID / IPV4-PACKET</text></g><g transform="translate(0 44)"><text x="440" y="16">IPv4</text><text x="490" y="16">数</text><text x="510" y="16">据</text><text x="530" y="16">包</text></g><g transform="translate(0 88)"><text x="50" y="16">0                     8                    16                    24                  31</text></g><g transform="translate(0 110)"><path d="M54 10h6v1H54M54 10h1v12H54M60 10h100v1H60M160 10h10v1H160M164 10h1v12H164M170 10h100v1H170M270 10h10v1H270M274 10h1v12H274M280 10h210v1H280M490 10h10v1H490M494 10h1v12H494M500 10h440v1H500M940 10h5v1H940M944 10h1v12H944"/></g><g transform="translate(0 132)"><path d="M54 0h1v22H54M164 0h1v22H164M274 0h1v22H274M494 0h1v22H494M944 0h1v22H944"/><text x="20" y="16">0:</text><text x="90" y="16">版</text><text x="110" y="16">本</text><text x="180" y="16">首</text><text x="200" y="16">部</text><text x="220" y="16">长</text><text x="240" y="16">度</text><text x="340" y="16">服</text><text x="360" y="16">务</text><text x="380" y="16">类</text><text x="400" y="16">型</text><text x="690" y="16">总</text><text x="710" y="16">长</text><text x="730" y="16">度</text></g><g transform="translate(0 154)"><path d="M54 0h1v22H54M164 0h1v22H164M274 0h1v22H274M494 0h1v22H494M944 0h1v22H944"/><text x="90" y="16">0..3</text><text x="200" y="16">4..7</text><text x="360" y="16">8..15</text><text x="690" y="16">16..31</text></g><g transform="translate(0 176)"><path d="M54 10h6v1H54M54 0h1v11H54M60 10h100v1H60M160 10h10v1H160M164 0h1v11H164M170 10h100v1H170M270 10h10v1H270M274 0h1v11H274M280 10h210v1H280M490 10h10v1H490M494 0h1v11H494M500 10h440v1H500M940 10h5v1H940M944 0h1v11H944"/></g><use href="#l0" y="220"/><g transform="translate(0 242)"><path d="M54 0h1v22H54M944 0h1v22H944"/><text x="10" y="16">32:</text><text x="480" y="16">标</text><text x="500" y="16">识</text></g><g transform="translate(0 264)"><path d="M54 0h1v22H54M944 0h1v22H944"/><text x="470" y="16">32..63</text></g><use href="#l1" y="286"/><g transform="translate(0 330)"><path d="M54 10h6v1H54M54 10h1v12H54M60 10h70v1H60M130 10h10v1H130M134 10h1v12H134M140 10h320v1H140M460 10h10v1H460M464 10h1v12H464M470 10h240v1H470M710 10h10v1H710M714 10h1v12H714M720 10h220v1H720M940 10h5v1H940M944 10h1v12H944"/></g><g transform="translate(0 352)"><path d="M54 0h1v22H54M134 0h1v22H134M464 0h1v22H464M714 0h1v22H714M944 0h1v22H944"/><text x="10" y="16">64:</text><text x="70" y="16">标</text><text x="90" y="16">志</text><text x="270" y="16">片</text><text x="290" y="16">偏</text><text x="310" y="16">移</text><text x="550" y="16">生</text><text x="570" y="16">存</text><text x="590" y="16">时</text><text x="610" y="16">间</text><text x="810" y="16">协</text><text x="830" y="16">议</text></g><g transform="translate(0 374)"><path d="M54 0h1v22H54M134 0h1v22H134M464 0h1v22H464M714 0h1v22H714M944 0h1v22H944"/><text x="60" y="16">64..66</text><text x="270" y="16">67..78</text><text x="560" y="16">79..87</text><text x="800" y="16">88..95</text></g><g transform="translate(0 396)"><path d="M54 10h6v1H54M54 0h1v11H54M60 10h70v1H60M130 10h10v1H130M134 0h1v11H134M140 10h320v1H140M460 10h10v1H460M464 0h1v11H464M470 10h240v1H470M710 10h10v1H710M714 0h1v11H714M720 10h220v1H720M940 10h5v1H940M944 0h1v11H944"/></g><g transform="translate(0 440)"><path d="M54 10h6v1H54M54 10h1v12H54M60 10h430v1H60M490 10h10v1H490M494 10h1v12H494M500 10h440v1H500M940 10h5v1H940M944 10h1v12H944"/></g><g transform="translate(0 462)"><path d="M54 0h1v22H54M494 0h1v22H494M944 0h1v22H944"/><text x="10" y="16">96:</text><text x="220" y="16">首</text><text x="240" y="16">部</text><text x="260" y="16">校</text><text x="280" y="16">验</text><text x="300" y="16">和</text><text x="690" y="16">源</text><text x="710" y="16">地</text><text x="730" y="16">址</text></g><g transform="translate(0 484)"><path d="M54 0h1v22H54M494 0h1v22H494M944 0h1v22H944"/><text x="240" y="16">96..111</text><text x="680" y="16">112..127</text></g><g transform="translate(0 506)"><path d="M54 10h6v1H54M54 0h1v11H54M60 10h430v1H60M490 10h10v1H490M494 0h1v11H494M500 10h440v1H500M940 10h5v1H940M944 0h1v11H944"/></g><use href="#l0" y="550"/><g transform="translate(0 572)"><path d="M54 0h1v22H54M944 0h1v22H944"/><text y="16">128:</text><text x="460" y="16">目</text><text x="480" y="16">的</text><text x="500" y="16">地</text><text x="520" y="16">址</text></g><g transform="translate(0 594)"><path d="M54 0h1v22H54M944 0h1v22H944"/><text x="460" y="16">128..159</text></g><use href="#l1" y="616"/><g transform="translate(0 660)"><text x="10" y="16">[1]</text><text x="50" y="16">版</text><text x="70" y="16">本</text><text x="110" y="16">0..3  (4 bits)</text></g><g transform="translate(0 682)"><text x="10" y="16">[2]</text><text x="50" y="16">首</text><text x="70" y="16">部</text><text x="90" y="16">长</text><text x="110" y="16">度</text><text x="150" y="16">4..7  (4 bits)</text></g><g transform="translate(0 704)"><text x="10" y="16">[3]</text><text x="50" y="16">服</text><text x="70" y="16">务</text><text x="90" y="16">类</text><text x="110" y="16">型</text><text x="150" y="16">8..15  (8 bits)</text></g><g transform="translate(0 726)"><text x="10" y="16">[4]</text><text x="50" y="16">总</text><text x="70" y="16">长</text><text x="90" y="16">度</text><text x="130" y="16">16..31  (16 bits)</text></g><g transform="translate(0 748)"><text x="10" y="16">[5]</text><text x="50" y="16">标</text><text x="70" y="16">识</text><text x="110" y="16">32..63  (32 bits)</text></g><g transform="translate(0 770)"><text x="10" y="16">[6]</text><text x="50" y="16">标</text><text x="70" y="16">志</text><text x="110" y="16">64..66  (3 bits)</text></g><g transform="translate(0 792)"><text x="10" y="16">[7]</text><text x="50" y="16">片</text><text x="70" y="16">偏</text><text x="90" y="16">移</text><text x="130" y="16">67..78  (12 bits)</text></g><g transform="translate(0 814)"><text x="10" y="16">[8]</text><text x="50" y="16">生</text><text x="70" y="16">存</text><text x="90" y="16">时</text><text x="110" y="16">间</text><text x="150" y="16">79..87  (9 bits)</text></g><g transform="translate(0 836)"><text x="10" y="16">[9]</text><text x="50" y="16">协</text><text x="70" y="16">议</text><text x="110" y="16">88..95  (8 bits)</text></g><g transform="translate(0 858)"><text x="10" y="16">[10]</text><text x="60" y="16">首</text><text x="80" y="16">部</text><text x="100" y="16">校</text><text x="120" y="16">验</text><text x="140" y="16">和</text><text x="180" y="16">96..111  (16 bits)</text></g><g transform="translate(0 880)"><text x="10" y="16">[11]</text><text x="60" y="16">源</text><text x="80" y="16">地</text><text x="100" y="16">址</text><text x="140" y="16">112..127  (16 bits)</text></g><g transform="translate(0 902)"><text x="10" y="16">[12]</text><text x="60" y="16">目</text><text x="80" y="16">的</text><text x="100" y="16">地</text><text x="120" y="16">址</text><text x="160" y="16">128..159  (32 bits)</text></g></g></g></g></svg></svg>