<svg xmlns="http://www.w3.org/2000/svg" width="1040" height="390" viewBox="0 0 1040 390"><rect width="1040" height="390" rx="5" fill="#171b21"/><circle cx="20" cy="20" r="6" fill="#ff5f58"/><circle cx="40" cy="20" r="6" fill="#ffbd2e"/><circle cx="60" cy="20" r="6" fill="#18c132"/><svg x="15" y="50" width="1000" height="330" viewBox="0 0 1000 330" overflow="hidden"><style>.s0{fill:#1f6feb;font-weight:700}text{white-space:pre;font-kerning:none;font-variant-ligatures:none;font-synthesis:none;font-optical-sizing:none;-webkit-font-smoothing:antialiased;text-rendering:optimizeLegibility;text-decoration-skip-ink:none;text-decoration-thickness:1px;text-underline-offset:2px;letter-spacing:0.4px}</style><g font-family="&apos;JetBrains Mono&apos;,&apos;Fira Code&apos;,&apos;SF Mono&apos;,Menlo,Consolas,&apos;DejaVu Sans Mono&apos;,&apos;Liberation Mono&apos;,&apos;Symbols Nerd Font Mono&apos;,&apos;Symbols Nerd Font&apos;,&apos;Powerline Symbols&apos;,&apos;Apple Symbols&apos;,&apos;Segoe UI Symbol&apos;,&apos;Noto Sans Symbols 2&apos;,&apos;Noto Sans Symbols&apos;,&apos;Apple Color Emoji&apos;,&apos;Segoe UI Emoji&apos;,&apos;Noto Color Emoji&apos;,monospace" font-size="16" fill="#eceff4" shape-rendering="crispEdges"><defs><g id="c"><rect width="10" height="22" fill="#6a737d"/></g><g id="l0"><path d="M44 0h1v22H44M174 0h1v22H174"/></g><g id="l1"><path d="M44 0h1v22H44M174 0h1v22H174"/><text x="60" y="16">你</text><text x="80" y="16">好</text></g><g id="l2"><path d="M44 10h6v1H44M44 0h1v22H44M50 10h110v1H50M174 0h1v22H174"/><text x="160" y="16">►</text></g></defs><g class="r"><g transform="translate(0 0)"><g transform="translate(0 0)"><text y="16" class="s0">MERMAID / SEQUENCE</text></g><g transform="translate(0 22)"><path d="M4 10h6v1H4M4 10h1v12H4M10 10h70v1H10M80 10h5v1H80M84 10h1v12H84M144 10h6v1H144M144 10h1v12H144M150 10h50v1H150M200 10h5v1H200M204 10h1v12H204"/></g><g transform="translate(0 44)"><path d="M4 0h1v22H4M84 0h1v22H84M144 0h1v22H144M204 0h1v22H204"/><text x="20" y="16">Alice</text><text x="160" y="16">Bob</text></g><g transform="translate(0 66)"><path d="M4 10h6v1H4M4 0h1v11H4M10 10h30v1H10M40 10h10v1H40M44 10h1v12H44M50 10h30v1H50M80 10h5v1H80M84 0h1v11H84M144 10h6v1H144M144 0h1v11H144M150 10h20v1H150M170 10h10v1H170M174 10h1v12H174M180 10h20v1H180M200 10h5v1H200M204 0h1v11H204"/></g><use href="#l0" y="88"/><use href="#l1" y="110"/><use href="#l2" y="132"/><use href="#l0" y="154"/><use href="#l1" y="176"/><g transform="translate(0 198)"><path d="M44 0h1v22H44M170 10h5v1H170M174 0h1v22H174"/><text x="50" y="16">◄┈┈┈┈┈┈┈┈┈┈┈</text></g><use href="#l0" y="220"/><g transform="translate(0 242)"><path d="M44 0h1v22H44M174 0h1v22H174"/><text x="60" y="16">再</text><text x="80" y="16">见</text></g><use href="#l2" y="264"/><use href="#l0" y="286"/></g></g></g></svg></svg>