<svg xmlns="http://www.w3.org/2000/svg" width="1040" height="324" viewBox="0 0 1040 324"><rect width="1040" height="324" rx="5" fill="#171b21"/><circle cx="20" cy="20" r="6" fill="#ff5f58"/><circle cx="40" cy="20" r="6" fill="#ffbd2e"/><circle cx="60" cy="20" r="6" fill="#18c132"/><svg x="15" y="50" width="1000" height="264" viewBox="0 0 1000 264" overflow="hidden"><style>.s0{fill:#1f6feb;font-weight:700}text{white-space:pre;font-kerning:none;font-variant-ligatures:none;font-synthesis:none;font-optical-sizing:none;-webkit-font-smoothing:antialiased;text-rendering:optimizeLegibility;text-decoration-skip-ink:none;text-decoration-thickness:1px;text-underline-offset:2px;letter-spacing:0.4px}</style><g font-family="&apos;JetBrains Mono&apos;,&apos;Fira Code&apos;,&apos;SF Mono&apos;,Menlo,Consolas,&apos;DejaVu Sans Mono&apos;,&apos;Liberation Mono&apos;,&apos;Symbols Nerd Font Mono&apos;,&apos;Symbols Nerd Font&apos;,&apos;Powerline Symbols&apos;,&apos;Apple Symbols&apos;,&apos;Segoe UI Symbol&apos;,&apos;Noto Sans Symbols 2&apos;,&apos;Noto Sans Symbols&apos;,&apos;Apple Color Emoji&apos;,&apos;Segoe UI Emoji&apos;,&apos;Noto Color Emoji&apos;,monospace" font-size="16" fill="#eceff4" shape-rendering="crispEdges"><defs><g id="c"><rect width="10" height="22" fill="#6a737d"/></g></defs><g class="r"><g transform="translate(0 0)"><g transform="translate(0 0)"><text y="16" class="s0">MERMAID / TREEVIEW</text></g><g transform="translate(0 22)"><text x="230" y="16">Tree view</text></g><g transform="translate(0 88)"><path d="M224 10h6v1H224M224 10h1v12H224M230 10h100v1H230M330 10h5v1H330M334 10h1v12H334"/></g><g transform="translate(0 110)"><path d="M144 10h6v1H144M144 10h1v12H144M150 10h60v1H150M220 10h5v1H220M224 0h1v22H224M334 10h6v1H334M334 0h1v22H334M340 10h70v1H340M410 10h5v1H410M414 10h1v12H414"/><text x="210" y="16">▶</text><text x="240" y="16">子</text><text x="260" y="16">节</text><text x="280" y="16">点</text><text x="300" y="16">1</text></g><g transform="translate(0 132)"><path d="M24 10h6v1H24M24 10h1v12H24M30 10h100v1H30M130 10h5v1H130M134 10h1v12H134M144 0h1v22H144M224 10h6v1H224M224 0h1v11H224M230 10h100v1H230M330 10h5v1H330M334 0h1v11H334M414 0h1v22H414M424 10h6v1H424M424 10h1v12H424M430 10h100v1H430M530 10h5v1H530M534 10h1v12H534"/></g><g transform="translate(0 154)"><path d="M24 0h1v22H24M134 10h6v1H134M134 0h1v22H134M140 10h10v1H140M144 0h1v11H144M150 10h60v1H150M210 10h5v1H210M214 10h1v12H214M420 10h5v1H420M424 0h1v22H424M534 0h1v22H534"/><text x="50" y="16">根</text><text x="70" y="16">节</text><text x="90" y="16">点</text><text x="410" y="16">▶</text><text x="450" y="16">孙</text><text x="470" y="16">节</text><text x="490" y="16">点</text></g><g transform="translate(0 176)"><path d="M24 10h6v1H24M24 0h1v11H24M30 10h100v1H30M130 10h5v1H130M134 0h1v11H134M214 0h1v22H214M224 10h6v1H224M224 10h1v12H224M230 10h100v1H230M330 10h5v1H330M334 10h1v12H334M424 10h6v1H424M424 0h1v11H424M430 10h100v1H430M530 10h5v1H530M534 0h1v11H534"/></g><g transform="translate(0 198)"><path d="M220 10h5v1H220M224 0h1v22H224M334 0h1v22H334"/><text x="210" y="16">▶</text><text x="240" y="16">子</text><text x="260" y="16">节</text><text x="280" y="16">点</text><text x="300" y="16">2</text></g><g transform="translate(0 220)"><path d="M224 10h6v1H224M224 0h1v11H224M230 10h100v1H230M330 10h5v1H330M334 0h1v11H334"/></g></g></g></g></svg></svg>